<mxfile host="app.diagrams.net" modified="2021-12-09T07:54:52.972Z" agent="5.0 (Windows NT 10.0; Win64; x64) AppleWebKit/537.36 (KHTML, like Gecko) Chrome/96.0.4664.45 Safari/537.36" etag="KKcAhev7Z5nfEqZei5Nu" version="15.9.1" type="github">
  <diagram id="R2lEEEUBdFMjLlhIrx00" name="Page-1">
    <mxGraphModel dx="1621" dy="1766" grid="0" gridSize="1" guides="1" tooltips="1" connect="1" arrows="1" fold="1" page="0" pageScale="1" pageWidth="850" pageHeight="1100" math="0" shadow="0" extFonts="Permanent Marker^https://fonts.googleapis.com/css?family=Permanent+Marker">
      <root>
        <mxCell id="0" />
        <mxCell id="1" parent="0" />
        <mxCell id="GVDWhF9mf-tNLQKt3IDj-128" value="&lt;span style=&quot;font-size: 36px&quot;&gt;ER diagram&lt;/span&gt;" style="text;strokeColor=none;fillColor=none;html=1;fontSize=24;fontStyle=1;verticalAlign=middle;align=center;rounded=0;" parent="1" vertex="1">
          <mxGeometry x="98" y="-877" width="100" height="40" as="geometry" />
        </mxCell>
        <mxCell id="r5lvNkmeyeCGKQ_JeHkO-3" value="" style="edgeStyle=orthogonalEdgeStyle;rounded=0;orthogonalLoop=1;jettySize=auto;html=1;endArrow=none;endFill=0;" edge="1" parent="1" source="r5lvNkmeyeCGKQ_JeHkO-1" target="r5lvNkmeyeCGKQ_JeHkO-2">
          <mxGeometry relative="1" as="geometry" />
        </mxCell>
        <mxCell id="r5lvNkmeyeCGKQ_JeHkO-23" value="" style="edgeStyle=orthogonalEdgeStyle;rounded=0;orthogonalLoop=1;jettySize=auto;html=1;endArrow=none;endFill=0;" edge="1" parent="1" source="r5lvNkmeyeCGKQ_JeHkO-1" target="r5lvNkmeyeCGKQ_JeHkO-22">
          <mxGeometry relative="1" as="geometry" />
        </mxCell>
        <mxCell id="r5lvNkmeyeCGKQ_JeHkO-1" value="Reader" style="rounded=0;whiteSpace=wrap;html=1;" vertex="1" parent="1">
          <mxGeometry x="-92" y="-347.5" width="120" height="60" as="geometry" />
        </mxCell>
        <mxCell id="r5lvNkmeyeCGKQ_JeHkO-5" value="" style="edgeStyle=orthogonalEdgeStyle;rounded=0;orthogonalLoop=1;jettySize=auto;html=1;endArrow=none;endFill=0;" edge="1" parent="1" source="r5lvNkmeyeCGKQ_JeHkO-2" target="r5lvNkmeyeCGKQ_JeHkO-4">
          <mxGeometry relative="1" as="geometry" />
        </mxCell>
        <mxCell id="r5lvNkmeyeCGKQ_JeHkO-2" value="Requests" style="rhombus;whiteSpace=wrap;html=1;rounded=0;" vertex="1" parent="1">
          <mxGeometry x="117" y="-357.5" width="80" height="80" as="geometry" />
        </mxCell>
        <mxCell id="r5lvNkmeyeCGKQ_JeHkO-7" value="" style="edgeStyle=orthogonalEdgeStyle;rounded=0;orthogonalLoop=1;jettySize=auto;html=1;endArrow=none;endFill=0;" edge="1" parent="1" source="r5lvNkmeyeCGKQ_JeHkO-4" target="r5lvNkmeyeCGKQ_JeHkO-6">
          <mxGeometry relative="1" as="geometry" />
        </mxCell>
        <mxCell id="r5lvNkmeyeCGKQ_JeHkO-4" value="Book" style="whiteSpace=wrap;html=1;rounded=0;" vertex="1" parent="1">
          <mxGeometry x="268" y="-347.5" width="120" height="60" as="geometry" />
        </mxCell>
        <mxCell id="r5lvNkmeyeCGKQ_JeHkO-9" value="" style="edgeStyle=orthogonalEdgeStyle;rounded=0;orthogonalLoop=1;jettySize=auto;html=1;endArrow=none;endFill=0;" edge="1" parent="1" source="r5lvNkmeyeCGKQ_JeHkO-6" target="r5lvNkmeyeCGKQ_JeHkO-8">
          <mxGeometry relative="1" as="geometry" />
        </mxCell>
        <mxCell id="r5lvNkmeyeCGKQ_JeHkO-6" value="Publishes" style="rhombus;whiteSpace=wrap;html=1;rounded=0;" vertex="1" parent="1">
          <mxGeometry x="288" y="-497.5" width="80" height="80" as="geometry" />
        </mxCell>
        <mxCell id="r5lvNkmeyeCGKQ_JeHkO-8" value="Publisher" style="whiteSpace=wrap;html=1;rounded=0;" vertex="1" parent="1">
          <mxGeometry x="378" y="-647.5" width="120" height="60" as="geometry" />
        </mxCell>
        <mxCell id="r5lvNkmeyeCGKQ_JeHkO-12" style="edgeStyle=orthogonalEdgeStyle;rounded=0;orthogonalLoop=1;jettySize=auto;html=1;entryX=0.5;entryY=1;entryDx=0;entryDy=0;endArrow=none;endFill=0;" edge="1" parent="1" source="r5lvNkmeyeCGKQ_JeHkO-10" target="r5lvNkmeyeCGKQ_JeHkO-4">
          <mxGeometry relative="1" as="geometry" />
        </mxCell>
        <mxCell id="r5lvNkmeyeCGKQ_JeHkO-13" style="edgeStyle=orthogonalEdgeStyle;rounded=0;orthogonalLoop=1;jettySize=auto;html=1;endArrow=none;endFill=0;" edge="1" parent="1" source="r5lvNkmeyeCGKQ_JeHkO-10" target="r5lvNkmeyeCGKQ_JeHkO-1">
          <mxGeometry relative="1" as="geometry" />
        </mxCell>
        <mxCell id="r5lvNkmeyeCGKQ_JeHkO-10" value="Returns" style="rhombus;whiteSpace=wrap;html=1;rounded=0;" vertex="1" parent="1">
          <mxGeometry x="117" y="-238.5" width="80" height="80" as="geometry" />
        </mxCell>
        <mxCell id="r5lvNkmeyeCGKQ_JeHkO-17" value="" style="edgeStyle=orthogonalEdgeStyle;rounded=0;orthogonalLoop=1;jettySize=auto;html=1;endArrow=none;endFill=0;entryX=0.5;entryY=0;entryDx=0;entryDy=0;exitX=1;exitY=0.75;exitDx=0;exitDy=0;" edge="1" parent="1" source="r5lvNkmeyeCGKQ_JeHkO-15" target="r5lvNkmeyeCGKQ_JeHkO-16">
          <mxGeometry relative="1" as="geometry" />
        </mxCell>
        <mxCell id="r5lvNkmeyeCGKQ_JeHkO-20" value="" style="edgeStyle=orthogonalEdgeStyle;rounded=0;orthogonalLoop=1;jettySize=auto;html=1;endArrow=none;endFill=0;" edge="1" parent="1" source="r5lvNkmeyeCGKQ_JeHkO-15" target="r5lvNkmeyeCGKQ_JeHkO-19">
          <mxGeometry relative="1" as="geometry" />
        </mxCell>
        <mxCell id="r5lvNkmeyeCGKQ_JeHkO-26" style="edgeStyle=orthogonalEdgeStyle;rounded=0;orthogonalLoop=1;jettySize=auto;html=1;entryX=1;entryY=0.5;entryDx=0;entryDy=0;endArrow=none;endFill=0;" edge="1" parent="1" source="r5lvNkmeyeCGKQ_JeHkO-15" target="r5lvNkmeyeCGKQ_JeHkO-25">
          <mxGeometry relative="1" as="geometry" />
        </mxCell>
        <mxCell id="r5lvNkmeyeCGKQ_JeHkO-33" value="" style="edgeStyle=orthogonalEdgeStyle;rounded=0;orthogonalLoop=1;jettySize=auto;html=1;endArrow=none;endFill=0;" edge="1" parent="1" source="r5lvNkmeyeCGKQ_JeHkO-15" target="r5lvNkmeyeCGKQ_JeHkO-32">
          <mxGeometry relative="1" as="geometry" />
        </mxCell>
        <mxCell id="r5lvNkmeyeCGKQ_JeHkO-15" value="Staff" style="rounded=0;whiteSpace=wrap;html=1;" vertex="1" parent="1">
          <mxGeometry x="-92" y="-647.5" width="120" height="60" as="geometry" />
        </mxCell>
        <mxCell id="r5lvNkmeyeCGKQ_JeHkO-18" style="edgeStyle=orthogonalEdgeStyle;rounded=0;orthogonalLoop=1;jettySize=auto;html=1;entryX=0.25;entryY=0;entryDx=0;entryDy=0;endArrow=none;endFill=0;exitX=0.5;exitY=1;exitDx=0;exitDy=0;" edge="1" parent="1" source="r5lvNkmeyeCGKQ_JeHkO-16" target="r5lvNkmeyeCGKQ_JeHkO-4">
          <mxGeometry relative="1" as="geometry" />
        </mxCell>
        <mxCell id="r5lvNkmeyeCGKQ_JeHkO-16" value="Manages" style="rhombus;whiteSpace=wrap;html=1;rounded=0;" vertex="1" parent="1">
          <mxGeometry x="117" y="-535.5" width="80" height="80" as="geometry" />
        </mxCell>
        <mxCell id="r5lvNkmeyeCGKQ_JeHkO-21" value="" style="edgeStyle=orthogonalEdgeStyle;rounded=0;orthogonalLoop=1;jettySize=auto;html=1;endArrow=none;endFill=0;" edge="1" parent="1" source="r5lvNkmeyeCGKQ_JeHkO-19" target="r5lvNkmeyeCGKQ_JeHkO-1">
          <mxGeometry relative="1" as="geometry" />
        </mxCell>
        <mxCell id="r5lvNkmeyeCGKQ_JeHkO-19" value="Issues&lt;br&gt;Fine" style="rhombus;whiteSpace=wrap;html=1;rounded=0;" vertex="1" parent="1">
          <mxGeometry x="-72" y="-517.5" width="80" height="80" as="geometry" />
        </mxCell>
        <mxCell id="r5lvNkmeyeCGKQ_JeHkO-24" style="edgeStyle=orthogonalEdgeStyle;rounded=0;orthogonalLoop=1;jettySize=auto;html=1;entryX=0;entryY=0.5;entryDx=0;entryDy=0;endArrow=none;endFill=0;exitX=0.5;exitY=0;exitDx=0;exitDy=0;" edge="1" parent="1" source="r5lvNkmeyeCGKQ_JeHkO-22" target="r5lvNkmeyeCGKQ_JeHkO-15">
          <mxGeometry relative="1" as="geometry" />
        </mxCell>
        <mxCell id="r5lvNkmeyeCGKQ_JeHkO-22" value="Pays&lt;br&gt;Fine" style="rhombus;whiteSpace=wrap;html=1;rounded=0;" vertex="1" parent="1">
          <mxGeometry x="-202" y="-517.5" width="80" height="80" as="geometry" />
        </mxCell>
        <mxCell id="r5lvNkmeyeCGKQ_JeHkO-28" value="" style="edgeStyle=orthogonalEdgeStyle;rounded=0;orthogonalLoop=1;jettySize=auto;html=1;endArrow=none;endFill=0;" edge="1" parent="1" source="r5lvNkmeyeCGKQ_JeHkO-25" target="r5lvNkmeyeCGKQ_JeHkO-27">
          <mxGeometry relative="1" as="geometry" />
        </mxCell>
        <mxCell id="r5lvNkmeyeCGKQ_JeHkO-30" value="" style="edgeStyle=orthogonalEdgeStyle;rounded=0;orthogonalLoop=1;jettySize=auto;html=1;endArrow=none;endFill=0;" edge="1" parent="1" source="r5lvNkmeyeCGKQ_JeHkO-25" target="r5lvNkmeyeCGKQ_JeHkO-29">
          <mxGeometry relative="1" as="geometry" />
        </mxCell>
        <mxCell id="r5lvNkmeyeCGKQ_JeHkO-25" value="" style="triangle;whiteSpace=wrap;html=1;rotation=90;" vertex="1" parent="1">
          <mxGeometry x="-46.5" y="-736" width="29" height="48" as="geometry" />
        </mxCell>
        <mxCell id="r5lvNkmeyeCGKQ_JeHkO-27" value="Accountant" style="whiteSpace=wrap;html=1;" vertex="1" parent="1">
          <mxGeometry x="17" y="-742" width="120" height="60" as="geometry" />
        </mxCell>
        <mxCell id="r5lvNkmeyeCGKQ_JeHkO-29" value="Librarian" style="whiteSpace=wrap;html=1;" vertex="1" parent="1">
          <mxGeometry x="-201" y="-742" width="120" height="60" as="geometry" />
        </mxCell>
        <mxCell id="r5lvNkmeyeCGKQ_JeHkO-34" value="" style="edgeStyle=orthogonalEdgeStyle;rounded=0;orthogonalLoop=1;jettySize=auto;html=1;endArrow=none;endFill=0;" edge="1" parent="1" source="r5lvNkmeyeCGKQ_JeHkO-32" target="r5lvNkmeyeCGKQ_JeHkO-8">
          <mxGeometry relative="1" as="geometry" />
        </mxCell>
        <mxCell id="r5lvNkmeyeCGKQ_JeHkO-32" value="Pays" style="rhombus;whiteSpace=wrap;html=1;rounded=0;" vertex="1" parent="1">
          <mxGeometry x="204" y="-657.5" width="80" height="80" as="geometry" />
        </mxCell>
        <mxCell id="r5lvNkmeyeCGKQ_JeHkO-36" value="1" style="text;html=1;align=center;verticalAlign=middle;resizable=0;points=[];autosize=1;strokeColor=none;fillColor=none;" vertex="1" parent="1">
          <mxGeometry x="436" y="-510.5" width="16" height="18" as="geometry" />
        </mxCell>
        <mxCell id="r5lvNkmeyeCGKQ_JeHkO-37" value="N" style="text;html=1;align=center;verticalAlign=middle;resizable=0;points=[];autosize=1;strokeColor=none;fillColor=none;" vertex="1" parent="1">
          <mxGeometry x="327" y="-388.5" width="19" height="18" as="geometry" />
        </mxCell>
        <mxCell id="r5lvNkmeyeCGKQ_JeHkO-38" value="M" style="text;html=1;align=center;verticalAlign=middle;resizable=0;points=[];autosize=1;strokeColor=none;fillColor=none;" vertex="1" parent="1">
          <mxGeometry x="156" y="-562.5" width="20" height="18" as="geometry" />
        </mxCell>
        <mxCell id="r5lvNkmeyeCGKQ_JeHkO-39" value="N" style="text;html=1;align=center;verticalAlign=middle;resizable=0;points=[];autosize=1;strokeColor=none;fillColor=none;" vertex="1" parent="1">
          <mxGeometry x="203" y="-417.5" width="19" height="18" as="geometry" />
        </mxCell>
        <mxCell id="r5lvNkmeyeCGKQ_JeHkO-42" value="N" style="text;html=1;align=center;verticalAlign=middle;resizable=0;points=[];autosize=1;strokeColor=none;fillColor=none;" vertex="1" parent="1">
          <mxGeometry x="220" y="-339.5" width="19" height="18" as="geometry" />
        </mxCell>
        <mxCell id="r5lvNkmeyeCGKQ_JeHkO-43" value="M" style="text;html=1;align=center;verticalAlign=middle;resizable=0;points=[];autosize=1;strokeColor=none;fillColor=none;" vertex="1" parent="1">
          <mxGeometry x="42" y="-343.5" width="20" height="18" as="geometry" />
        </mxCell>
        <mxCell id="r5lvNkmeyeCGKQ_JeHkO-44" value="N" style="text;html=1;align=center;verticalAlign=middle;resizable=0;points=[];autosize=1;strokeColor=none;fillColor=none;" vertex="1" parent="1">
          <mxGeometry x="243" y="-220.5" width="19" height="18" as="geometry" />
        </mxCell>
        <mxCell id="r5lvNkmeyeCGKQ_JeHkO-45" value="1" style="text;html=1;align=center;verticalAlign=middle;resizable=0;points=[];autosize=1;strokeColor=none;fillColor=none;" vertex="1" parent="1">
          <mxGeometry x="44" y="-220.5" width="16" height="18" as="geometry" />
        </mxCell>
        <mxCell id="r5lvNkmeyeCGKQ_JeHkO-46" value="N" style="text;html=1;align=center;verticalAlign=middle;resizable=0;points=[];autosize=1;strokeColor=none;fillColor=none;" vertex="1" parent="1">
          <mxGeometry x="-32" y="-406" width="19" height="18" as="geometry" />
        </mxCell>
        <mxCell id="r5lvNkmeyeCGKQ_JeHkO-47" value="M" style="text;html=1;align=center;verticalAlign=middle;resizable=0;points=[];autosize=1;strokeColor=none;fillColor=none;" vertex="1" parent="1">
          <mxGeometry x="-34" y="-558" width="20" height="18" as="geometry" />
        </mxCell>
        <mxCell id="r5lvNkmeyeCGKQ_JeHkO-48" value="1" style="text;html=1;align=center;verticalAlign=middle;resizable=0;points=[];autosize=1;strokeColor=none;fillColor=none;" vertex="1" parent="1">
          <mxGeometry x="-161" y="-562" width="16" height="18" as="geometry" />
        </mxCell>
        <mxCell id="r5lvNkmeyeCGKQ_JeHkO-49" value="N" style="text;html=1;align=center;verticalAlign=middle;resizable=0;points=[];autosize=1;strokeColor=none;fillColor=none;" vertex="1" parent="1">
          <mxGeometry x="-161" y="-392" width="19" height="18" as="geometry" />
        </mxCell>
      </root>
    </mxGraphModel>
  </diagram>
</mxfile>
